<?xml version="1.0" encoding="utf-8"?>
<!-- Generator: Adobe Illustrator 20.1.0, SVG Export Plug-In . SVG Version: 6.00 Build 0)  -->
<svg version="1.1" id="Layer_1" xmlns="http://www.w3.org/2000/svg" xmlns:xlink="http://www.w3.org/1999/xlink" x="0px" y="0px"
	 viewBox="0 0 700 140" style="enable-background:new 0 0 700 140;" xml:space="preserve">
<style type="text/css">
	.st0{fill:#A47C52;}
	.st1{fill:#FFFFFF;stroke:#B1B1B1;stroke-miterlimit:10;}
	.st2{fill:#4D4D4D;}
	.st3{font-family:'ArialMT';}
	.st4{font-size:17px;}
</style>
<path class="st0" d="M683,116.5H12c-1.9,0-3.5-1.6-3.5-3.5l0,0c0-1.9,1.6-3.5,3.5-3.5h671c1.9,0,3.5,1.6,3.5,3.5l0,0
	C686.5,114.9,684.9,116.5,683,116.5z"/>
<circle class="st0" cx="50.3" cy="113" r="8.2"/>
<circle class="st0" cx="130.7" cy="113" r="8.2"/>
<g id="popup">
	<circle id="trigger1" class="st0" cx="228.7" cy="113" r="8.2"/>
	<g id="popupthing">
		<path class="st1" d="M299,25.3v46.9c0,7.3-6,14.3-13.4,14.3h-46l-11,19.1l-11-19.1h-46c-7.3,0-13.7-7-13.7-14.3V25.3
			c0-7.3,6.4-12.8,13.7-12.8h113.9C293,12.5,299,18,299,25.3z"/>
		<text transform="matrix(1 0 0 1 163.0015 75.3755)" class="st2 st3 st4">hello!</text>
		
			<image style="overflow:visible;" width="200" height="133" xlink:href="myPic.jpg"  transform="matrix(0.4364 0 0 0.4364 206.0015 19)">
		</image>
	</g>
</g>
</svg>
